<svg width="400" height="120" viewBox="0 0 400 120" fill="none" xmlns="http://www.w3.org/2000/svg">
<rect x="42" y="8" width="70" height="59" fill="white"/>
<rect x="7" y="45" width="62" height="53" fill="white"/>
<rect x="21" y="96" width="16" height="7" fill="white"/>
<rect x="22" y="101" width="8" height="9" fill="white"/>
<rect x="86" y="64" width="8" height="16" fill="white"/>
<rect x="79" y="57" width="8" height="16" fill="white"/>
<path d="M46.8867 3.51299L46.8905 3.51215C47.5504 3.364 48.9058 3.24091 50.7338 3.13579C52.5785 3.02971 54.9467 2.94009 57.6616 2.86737C63.0921 2.72191 69.9216 2.64375 76.7495 2.6375C83.5774 2.63125 90.4072 2.69689 95.8381 2.83923C98.5532 2.9104 100.922 3.00081 102.767 3.11124C104.594 3.22054 105.953 3.3515 106.618 3.51419C109.223 4.1398 112.005 5.79515 114.162 8.05476L114.168 8.06119L114.174 8.06782L117.374 11.6678L117.5 11.8099V12V37.2C117.5 48.6429 117.45 55.063 117.186 58.934C116.922 62.8122 116.439 64.2189 115.517 65.5758C114.138 67.72 112.683 69.2373 110.779 70.2878C108.882 71.3342 106.582 71.8941 103.552 72.1973C103.551 72.1974 103.551 72.1974 103.55 72.1975L98.5 72.7484V79.1C98.5 82.2717 98.4013 84.7124 98.062 86.3927C97.8925 87.232 97.6546 87.9283 97.3052 88.4387C96.9429 88.968 96.4539 89.3036 95.8295 89.372C95.2352 89.4372 94.5873 89.2519 93.8987 88.9062C93.204 88.5574 92.4177 88.0194 91.5286 87.3095C89.7504 85.8894 87.4947 83.7268 84.6449 80.852C81.7657 77.9478 79.5954 75.8032 77.9528 74.4305C77.1308 73.7436 76.4625 73.2685 75.92 72.9884C75.3675 72.7031 75.0205 72.6593 74.8042 72.7112C74.6168 72.7562 74.4137 72.9023 74.2186 73.3249C74.0199 73.7551 73.8653 74.4009 73.754 75.3019C73.532 77.0995 73.5 79.741 73.5 83.3C73.5 87.5739 73.3822 90.9226 72.893 93.5282C72.4021 96.1426 71.5268 98.0678 69.9676 99.4381C68.4172 100.801 66.257 101.555 63.3261 101.978C60.3942 102.401 56.6237 102.5 51.8 102.5H39.7071L31.7536 110.454C29.2044 113.003 27.2004 114.926 25.6311 116.202C24.8465 116.84 24.1551 117.329 23.5464 117.655C22.9452 117.976 22.3748 118.166 21.8473 118.137C21.2841 118.105 20.8376 117.829 20.5109 117.372C20.2007 116.939 19.9979 116.345 19.8566 115.641C19.5736 114.23 19.5 112.169 19.5 109.5V102.5H15.4C14.1032 102.5 12.5897 102.293 11.2007 101.975C9.81807 101.658 8.5151 101.22 7.65487 100.736L7.64816 100.732L7.64157 100.728C6.29626 99.9158 5.20079 99.1073 4.34219 97.9625C3.48216 96.8158 2.88805 95.3703 2.47251 93.3245C1.64766 89.2638 1.5 82.6796 1.5 71C1.5 63.4071 1.5246 57.6456 1.90029 53.2883C2.27495 48.9428 3.00377 45.9021 4.47898 43.8117C5.97783 41.6878 8.18997 40.6198 11.3223 40.0761C14.4347 39.5359 18.5388 39.5 23.9 39.5H36.5V29.2C36.5 23.3006 36.7994 16.7668 37.1055 14.7258L37.1065 14.7194C37.5242 12.1614 38.8486 9.62813 40.6108 7.60876C42.3703 5.59232 44.6061 4.04337 46.8867 3.51299ZM109.154 11.8607L109.146 11.8536L109.139 11.8463L106.887 9.5H77.2H47.5205L45.5692 11.6371C45.055 12.2004 44.7049 12.6278 44.4345 13.303C44.1576 13.9947 43.9531 14.9765 43.8107 16.6548C43.5255 20.0154 43.5 25.9872 43.5 37.6C43.5 39.6579 43.4933 41.5653 43.487 43.3337C43.47 48.1521 43.4566 51.9382 43.5932 54.924C43.7811 59.0287 44.2522 61.4855 45.2871 62.9919C46.2846 64.4438 47.8764 65.1006 50.6419 65.368C52.6683 65.5638 55.2337 65.5443 58.5209 65.5194C59.7442 65.5101 61.0674 65.5 62.5 65.5H77.5H77.7071L77.8536 65.6465L85.0511 72.844L85.0536 72.8465L91.5 79.2046V74.4C91.5 72.7275 91.6265 71.0752 91.844 69.7443C91.9527 69.0797 92.0858 68.4845 92.2414 68.0026C92.3902 67.5418 92.5818 67.1111 92.8465 66.8465C93.1139 66.579 93.5547 66.3879 94.0332 66.2396C94.5342 66.0843 95.1607 65.9516 95.875 65.8432C97.3053 65.6261 99.1312 65.5 101.1 65.5C104.169 65.5 105.841 65.4209 106.969 65.0835C108.034 64.7651 108.629 64.2123 109.506 63.0918L109.51 63.0877C109.992 62.4843 110.336 61.9785 110.6 61.2238C110.87 60.4542 111.065 59.401 111.202 57.6976C111.475 54.2854 111.5 48.4114 111.5 37.3V14.1131L109.154 11.8607ZM36.7009 54.1308L36.7008 54.1274L36.2267 45.5H24.3C18.3771 45.5 15.3058 45.5268 13.4202 45.8431C12.4949 45.9983 11.8874 46.2191 11.3822 46.5247C10.8695 46.8348 10.4331 47.2489 9.86099 47.846L9.85378 47.8535L9.84627 47.8607C9.21495 48.4668 8.80602 48.8707 8.4977 49.4599C8.18879 50.0503 7.96328 50.8653 7.80967 52.3031C7.50083 55.1939 7.5 60.3809 7.5 70.8C7.5 77.1801 7.50013 81.9412 7.66665 85.5158C7.83377 89.1034 8.16723 91.429 8.80013 92.9728C9.11224 93.7341 9.49216 94.2916 9.95113 94.7145C10.4104 95.1377 10.9708 95.4465 11.6722 95.6803C13.0939 96.1543 15.0084 96.2974 17.682 96.4973L17.7367 96.5013L17.7373 96.5014L24.5367 97.0013L24.9739 97.0335L24.9992 97.4712L25.299 102.668C25.3979 104.101 25.5704 105.402 25.7645 106.336C25.8573 106.782 25.9516 107.128 26.0387 107.36C26.1096 107.309 26.1919 107.246 26.2854 107.171C26.6242 106.902 27.0761 106.505 27.6094 106.009C28.6742 105.018 30.0406 103.652 31.4339 102.159C31.4341 102.159 31.4343 102.159 31.4345 102.159L36.5334 96.66L36.6818 96.5H36.9H49.8C55.6124 96.5 58.8742 96.449 60.9837 96.1669C62.0295 96.0271 62.7699 95.8328 63.3847 95.57C63.9973 95.308 64.5081 94.9683 65.0888 94.5087C65.717 94.0061 66.1442 93.6416 66.4624 93.2216C66.7698 92.8156 66.9912 92.3348 67.1481 91.5851C67.4722 90.0368 67.5 87.479 67.5 82.4V72.5H58.3C50.1135 72.5 44.882 71.6887 41.6134 68.9057C38.326 66.1069 37.1508 61.4291 36.7009 54.1308ZM26.1568 107.605C26.1568 107.604 26.1543 107.601 26.1493 107.596C26.1543 107.602 26.1568 107.605 26.1568 107.605ZM25.796 107.515C25.7916 107.517 25.7894 107.518 25.7894 107.518C25.7895 107.518 25.7916 107.517 25.796 107.515Z" fill="#334747" stroke="white"/>
<path d="M63.5001 27.5C60.4001 30.5 60.2001 36.1 63.0001 40.7C65.0001 44.1 75.7001 53 77.7001 53C79.6001 53 89.2001 44.8 91.8001 41C94.6001 36.8 94.7001 31.2 91.9001 27.6C89.2001 24.2 83.1001 23.9 79.9001 27.1L77.8001 29.2L75.6001 27.1C72.4001 24.1 66.6001 24.3 63.5001 27.5Z" fill="#1C64F2"/>
<path d="M128.136 25.4143L128.136 25.4143L128.14 25.403C128.344 24.928 128.686 24.5622 129.3 24.3021C129.878 24.0573 130.704 23.9027 131.895 23.8018C134.288 23.5992 138.366 23.6002 145.407 23.7L145.409 23.7001L161.509 24.0001L162 24.0092V24.5V29.5V34.5V34.9691L161.532 34.999L156.832 35.299L152.591 35.5697L152.3 49.8102L152 64.5102L151.99 65H151.5H145.5H139.5H139.01L139 64.5101L138.7 49.7102L138.7 49.7101L138.41 35.5H134.1C132.345 35.5 131.01 35.4013 130.052 35.1313C129.084 34.8586 128.406 34.3816 128.131 33.5726C127.701 32.4909 127.5 30.9762 127.5 29.5C127.5 28.0179 127.703 26.4969 128.136 25.4143Z" fill="#334747" stroke="white"/>
<path d="M165.5 65H165V64.5V53.5C165 48.4555 165.074 45.488 165.545 42.8011C166.017 40.1082 166.885 37.7158 168.434 33.8183C169.338 31.4585 170.293 29.2457 171.113 27.568C171.523 26.7297 171.903 26.0174 172.228 25.4846C172.39 25.2188 172.544 24.9895 172.686 24.8087C172.812 24.6489 172.962 24.4816 173.13 24.3788C173.476 24.1437 174.021 23.9873 174.626 23.8711C175.264 23.7485 176.051 23.6568 176.929 23.592C178.685 23.4622 180.841 23.4374 182.965 23.5002C185.089 23.5631 187.195 23.714 188.852 23.9389C189.679 24.0512 190.406 24.1835 190.973 24.3364C191.256 24.4127 191.51 24.4972 191.721 24.5922C191.922 24.6824 192.133 24.803 192.28 24.9746L192.29 24.987L192.3 25C192.487 25.2487 192.751 25.7602 193.058 26.4165C193.373 27.0912 193.754 27.9674 194.175 28.9839C195.015 31.0166 196.018 33.6235 196.97 36.3301C198.619 40.7763 199.509 43.4655 199.955 46.0912C200.402 48.7201 200.4 51.2655 200.3 55.412L200.3 55.4165L200 64.5165L199.984 65H199.5H193.5H187.5H187.03L187.001 64.5312L186.701 59.7319L186.701 59.7312L186.431 55.5H182H177.569L177.299 59.7312L177.299 59.7319L176.999 64.5312L176.97 65H176.5H171H165.5ZM182.755 44.3021L182.755 44.302L182.762 44.3015L186.048 44.0487L184.821 39.8423C184.821 39.8419 184.82 39.8414 184.82 39.841C184.352 38.2638 183.85 37.1113 183.351 36.3596C182.838 35.5883 182.403 35.3476 182.096 35.3372C181.801 35.3273 181.385 35.5248 180.89 36.254C180.407 36.9673 179.925 38.0842 179.481 39.636C179.136 40.8676 178.892 42.0442 178.77 42.942C178.71 43.3929 178.682 43.76 178.684 44.0229C178.685 44.1178 178.69 44.191 178.697 44.2449C178.749 44.2605 178.82 44.2775 178.911 44.2941C179.144 44.337 179.466 44.3698 179.861 44.388C180.647 44.4243 181.673 44.4004 182.755 44.3021ZM178.713 44.3293C178.714 44.3339 178.715 44.336 178.715 44.3359C178.715 44.3357 178.714 44.3334 178.713 44.3293Z" fill="#334747" stroke="white"/>
<path d="M227.5 53.5V48.5V42.9V42.3735L228.026 42.4007L233.826 42.7007L233.826 42.7007L239.526 43.0007L240 43.0256V43.5V54V64.5V65H239.5H223.5H207.5H207.008L207 64.5079L206.7 45.5079L206.7 45.5079L206.7 45.5048C206.65 40.3024 206.65 35.4233 206.7 31.7432C206.725 29.9037 206.763 28.3603 206.813 27.2247C206.838 26.6575 206.867 26.1871 206.899 25.8304C206.915 25.6523 206.933 25.4974 206.952 25.3705C206.969 25.2574 206.992 25.1349 207.028 25.0343C207.154 24.6642 207.426 24.3919 207.778 24.198C208.123 24.0075 208.568 23.8797 209.095 23.794C210.15 23.6226 211.669 23.6003 213.724 23.7006L213.726 23.7007L219.526 24.0007L219.991 24.0247L220 24.4898L220.3 39.1898L220.3 39.1899L220.59 53.5H224H227.5Z" fill="#334747" stroke="white"/>
<path d="M246.7 44.2074L246.7 44.2049L246.5 23.9049L246.495 23.3727L247.026 23.4007L252.726 23.7007L252.726 23.7007L258.526 24.0007L258.981 24.0242L259 24.4792L259.3 31.6792L259.3 31.6804C259.399 34.2261 259.573 36.0134 259.826 37.1546C259.953 37.7294 260.091 38.0992 260.224 38.3139C260.288 38.4183 260.339 38.466 260.368 38.4859C260.369 38.4868 260.37 38.4877 260.372 38.4885C260.384 38.4802 260.401 38.4689 260.421 38.4533C260.512 38.3837 260.634 38.2665 260.786 38.0928C261.088 37.7476 261.46 37.2334 261.879 36.58C262.715 35.2771 263.705 33.4715 264.648 31.4855L268.048 24.2865L268.176 24.0161L268.474 24.0007L274.269 23.701C274.27 23.7009 274.271 23.7009 274.272 23.7008C275.89 23.5998 277.346 23.6239 278.411 23.7537C278.938 23.818 279.398 23.9116 279.739 24.0427C279.907 24.1076 280.078 24.1933 280.215 24.313C280.356 24.4359 280.5 24.6323 280.5 24.9C280.5 25.0349 280.463 25.2002 280.424 25.3453C280.382 25.5076 280.321 25.7067 280.245 25.9347C280.092 26.3916 279.873 26.985 279.603 27.671C279.062 29.0421 278.309 30.7991 277.456 32.6061L274.77 38.8115L276.471 39.4301L276.471 39.4301L276.474 39.4314C277.566 39.8376 278.47 40.2685 279.185 40.8814C279.912 41.505 280.415 42.2923 280.752 43.3625C281.084 44.4187 281.255 45.7545 281.328 47.4869C281.4 49.2228 281.375 51.3877 281.3 54.1138L281.3 54.1144L281 64.5144L280.986 65H280.5H275H269.5H269.034L269.001 64.5356L268.501 57.5356L268.032 50.9712L263.768 50.699L259.579 50.4316L259.3 57.2205L259 64.5205L258.98 65H258.5H253H247.5H247.007L247 64.5074L246.7 44.2074ZM260.4 38.5C260.399 38.5 260.398 38.5 260.397 38.5C260.398 38.5 260.399 38.5 260.399 38.5C260.4 38.5 260.4 38.5 260.4 38.5Z" fill="#334747" stroke="white"/>
<path d="M292.259 35.2984L292.258 35.2983C291.364 35.2237 290.642 35.1529 290.073 35.0254C289.499 34.8966 289.019 34.6978 288.655 34.3245C288.291 33.9526 288.098 33.4653 287.972 32.8803C287.847 32.2999 287.776 31.562 287.702 30.6439C287.6 29.5717 287.574 28.4257 287.613 27.4553C287.632 26.9695 287.667 26.5216 287.718 26.1451C287.768 25.7819 287.837 25.4455 287.939 25.2054C288.133 24.7417 288.52 24.4269 289.083 24.2112C289.632 24.0011 290.395 23.8654 291.432 23.7768C293.513 23.5992 296.865 23.6002 302.209 23.7001L302.211 23.7001L315.511 24.0001L316 24.0112V24.5V29.5V34.5V34.9611L315.54 34.9984L311.84 35.2984L311.839 35.2984L308.5 35.5621V44.5V53.4379L311.839 53.7015L311.84 53.7016L315.54 54.0016L316 54.0389V54.5V59.5V64.5V65H315.5H302H288.5H288V64.5V59.5V54.5V54.0379L288.46 54.0016L292.259 53.7016L292.26 53.7016L295.5 53.4389V44.5V35.5611L292.259 35.2984Z" fill="#334747" stroke="white"/>
<path d="M322.919 25.1626L322.925 25.1433L322.932 25.1244C323.061 24.7792 323.339 24.5228 323.647 24.3334C323.961 24.1407 324.353 23.9876 324.793 23.8676C325.675 23.6273 326.822 23.5 328.1 23.5C330.035 23.5 331.302 23.6273 332.898 24.6688C334.433 25.6701 336.277 27.5209 339.461 30.8546L339.461 30.8546L339.466 30.8592L345.417 37.248L345.5 31.2V31.1965V23.9V23.3735L346.026 23.4007L351.826 23.7007L351.826 23.7007L357.526 24.0007L358 24.0256V24.5V44.5V64.5V65H357.5H352H346.5H346.051L346.003 64.554L345.503 59.9584C345.503 59.9577 345.503 59.957 345.503 59.9563C345.119 56.6938 343.985 54.4831 340.714 50.5182C339.524 49.0802 338.336 47.793 337.399 46.8684C336.929 46.4052 336.529 46.0389 336.227 45.7916C336.171 45.7462 336.121 45.7058 336.074 45.6703C336.056 45.7329 336.037 45.8048 336.017 45.8869C335.906 46.3527 335.796 47.0447 335.697 47.9189C335.499 49.6617 335.35 52.0704 335.3 54.7094L335.3 54.7094L335.3 54.7153L335 64.5153L334.985 65H334.5H329H323.5H323.008L323 64.5079L322.7 45.5079H322.7L322.7 45.5048C322.65 40.3022 322.65 35.4238 322.687 31.7574C322.706 29.9245 322.734 28.3923 322.77 27.2729C322.788 26.7137 322.809 26.2541 322.831 25.9102C322.842 25.7385 322.854 25.5918 322.866 25.474C322.878 25.3667 322.894 25.2518 322.919 25.1626ZM335.797 45.4846C335.791 45.4819 335.792 45.4826 335.798 45.4849L335.797 45.4846Z" fill="#334747" stroke="white"/>
<path d="M373.748 24.4238L373.755 24.4214L373.763 24.4192C374.527 24.2009 376.26 24.0251 378.361 23.9132C380.485 23.8001 383.048 23.7498 385.51 23.8001L385.511 23.8001L394.511 24.0001L395 24.011V24.5V29.5V34.5V34.9697L394.531 34.999L386.531 35.499L378.985 35.9707L378.7 44.7161L378.7 44.7163L378.416 53.5H382H385.5V49.7C385.5 47.0067 385.812 45.1352 386.942 43.976C388.077 42.812 389.904 42.5 392.5 42.5C394.086 42.5 395.359 42.5226 396.34 42.7505C397.358 42.9872 398.112 43.4574 398.602 44.3619C399.066 45.2184 399.265 46.4173 399.342 48.0388C399.419 49.6735 399.375 51.8182 399.3 54.6134L399.3 54.6151L399 64.5151L398.985 65H398.5L386 65L385.997 65C381.199 64.975 377.451 64.8505 374.54 64.3859C371.627 63.9212 369.486 63.1067 367.955 61.6497C366.421 60.1892 365.566 58.147 365.089 55.374C364.612 52.6065 364.5 49.0485 364.5 44.5C364.5 37.4192 364.843 33.0077 366.183 30.0676C367.558 27.0507 369.949 25.6394 373.748 24.4238Z" fill="#334747" stroke="white"/>
<path d="M135.998 75.0427L135.998 75.0427L136.003 75.0404C137.125 74.5596 138.913 74.2039 141.144 73.9531C143.39 73.7008 146.132 73.5502 149.192 73.5001V73.5H149.2C151.573 73.5 153.382 73.5062 154.765 73.5518C156.142 73.5972 157.131 73.6823 157.851 73.8506C158.584 74.0217 159.095 74.292 159.451 74.7462C159.786 75.1732 159.938 75.713 160.084 76.2738L160.086 76.2807L160.087 76.2876C160.4 77.6402 160.505 79.9005 160.295 81.1748C160.219 81.7292 160.116 82.2311 159.887 82.6485C159.642 83.0941 159.276 83.405 158.756 83.6234C158.258 83.833 157.61 83.961 156.778 84.0576C155.941 84.1549 154.877 84.2243 153.528 84.2992L153.528 84.2993L153.518 84.2997C153.03 84.3173 152.566 84.3331 152.125 84.3481C150.037 84.4193 148.448 84.4735 147.223 84.6154C145.729 84.7887 144.915 85.0821 144.432 85.575C143.955 86.0624 143.704 86.8442 143.621 88.2728C143.553 89.4415 143.599 90.9485 143.66 92.9306C143.673 93.3594 143.687 93.8103 143.7 94.2849C143.7 94.2852 143.7 94.2855 143.7 94.2859L143.985 103.018L151.22 103.3L151.221 103.3C153.02 103.375 154.418 103.445 155.509 103.539C156.595 103.634 157.408 103.756 158.024 103.948C158.653 104.143 159.106 104.421 159.439 104.839C159.758 105.241 159.929 105.731 160.081 106.263L160.085 106.275L160.087 106.288C160.399 107.639 160.505 109.897 160.295 111.172C160.224 111.74 160.148 112.321 159.823 112.778C159.472 113.27 158.906 113.531 158.097 113.691C157.288 113.85 156.136 113.925 154.496 113.962C152.85 114 150.676 114 147.807 114H147.8C142.077 114 139.064 113.977 137.154 113.603C136.176 113.411 135.462 113.124 134.812 112.693C134.176 112.273 133.618 111.725 132.95 111.057C132.276 110.408 131.728 109.85 131.301 109.201C130.867 108.541 130.571 107.808 130.361 106.816C129.949 104.872 129.85 101.839 129.7 96.2155C129.451 89.1704 129.645 84.4961 130.583 81.2849C131.055 79.6668 131.721 78.4025 132.626 77.3889C133.53 76.3757 134.651 75.6384 135.998 75.0427Z" fill="#1C64F2" stroke="white"/>
<path d="M172.866 74.9519L172.881 74.9249L172.9 74.9C173.148 74.5695 173.583 74.3555 174.07 74.1989C174.579 74.0355 175.242 73.9057 176.05 73.8039C177.668 73.6 179.943 73.5 182.9 73.5C185.857 73.5 188.18 73.6 189.848 73.8037C190.68 73.9054 191.366 74.0348 191.893 74.1972C192.393 74.3516 192.848 74.5642 193.1 74.9L193.1 74.8999L193.107 74.9094C193.265 75.1315 193.497 75.5976 193.768 76.1935C194.046 76.808 194.387 77.6084 194.763 78.5371C195.516 80.394 196.418 82.7753 197.271 85.2317C198.672 89.0355 199.485 91.595 199.943 94.2913C200.4 96.9861 200.5 99.7976 200.5 104.1V114V114.5H200H194H188H187.5V114V108.9V104.43L182.829 104.699L182.828 104.699L177.971 104.974L177.699 109.231L177.699 109.232L177.399 114.031L177.37 114.5H176.9H171.3H165.8H165.278L165.3 113.979L165.8 102.18C165.8 102.18 165.8 102.18 165.8 102.179C166 97.1795 166.226 93.9743 166.708 91.2626C167.191 88.5399 167.93 86.3293 169.136 83.3143L169.136 83.3143L169.137 83.3102C170.736 79.4143 172.447 75.6845 172.866 74.9519ZM186.209 92.2946C185.915 90.8247 185.224 88.4548 184.633 86.8779C184.216 85.8004 183.802 85.1459 183.428 84.8221C183.248 84.6668 183.096 84.6037 182.969 84.5872C182.846 84.5711 182.703 84.5933 182.526 84.6894C182.147 84.895 181.683 85.404 181.162 86.3271C180.65 87.233 180.119 88.4749 179.574 90.0575C179.172 91.3139 178.89 92.2249 178.759 92.901C178.624 93.6018 178.687 93.8971 178.786 94.0404C178.88 94.1757 179.112 94.325 179.782 94.4103C180.431 94.4929 181.339 94.5 182.6 94.5C183.73 94.5 184.558 94.4934 185.169 94.4438C185.799 94.3926 186.097 94.3003 186.241 94.2011C186.326 94.1424 186.396 94.0589 186.403 93.7645C186.411 93.4388 186.336 92.9832 186.209 92.2946Z" fill="#1C64F2" stroke="white"/>
<path d="M208 114.5H207.5V114V93.9V73.8V73.2851L208.015 73.3002L221.612 73.7001C221.612 73.7001 221.613 73.7002 221.613 73.7002C228.041 73.8497 231.514 73.9493 233.597 74.3072C234.652 74.4884 235.395 74.7421 236.001 75.1283C236.605 75.5129 237.035 76.0059 237.491 76.5881C238.108 77.3476 238.573 78.5112 238.903 79.8077C239.238 81.1198 239.448 82.6219 239.524 84.0992C239.601 85.5756 239.544 87.0443 239.337 88.2884C239.134 89.5064 238.772 90.6049 238.162 91.2448L238.162 91.2449L238.154 91.2536C237.884 91.5229 237.712 91.7209 237.611 91.8696C237.575 91.9222 237.554 91.9608 237.541 91.9873C237.544 91.9893 237.547 91.9913 237.55 91.9934C237.641 92.0562 237.802 92.1322 238.071 92.2301L238.072 92.2304C239.133 92.6186 240.025 93.0893 240.757 93.7342C241.493 94.3828 242.045 95.1886 242.452 96.2159C243.254 98.2404 243.5 101.156 243.5 105.5V114V114.5H243H237H231.1H230.623L230.601 114.024L230.301 107.724L230.301 107.724L230.022 101.973L225.272 101.699L225.271 101.699L220.5 101.429V107.4V114V114.5H220H214H208ZM237.502 91.954C237.502 91.954 237.502 91.9545 237.503 91.9556C237.502 91.9545 237.502 91.954 237.502 91.954ZM221.324 90.9306C221.832 91.3933 222.739 91.5119 224.484 91.1137C225.438 90.8746 225.869 90.5963 226.116 90.1644C226.392 89.6817 226.5 88.9106 226.5 87.5C226.5 86.6698 226.487 86.0743 226.422 85.633C226.358 85.1932 226.254 84.9856 226.134 84.8661C226.014 84.7465 225.807 84.6416 225.367 84.5776C224.926 84.5133 224.33 84.5 223.5 84.5C222.67 84.5 222.074 84.5133 221.631 84.5763C221.19 84.6392 220.981 84.7422 220.861 84.8584C220.744 84.9724 220.641 85.1696 220.577 85.5929C220.513 86.019 220.5 86.5947 220.5 87.4C220.5 88.3826 220.568 89.1496 220.712 89.7372C220.856 90.3229 221.066 90.6949 221.324 90.9306Z" fill="#1C64F2" stroke="white"/>
<path d="M296.192 74.9453L296.199 74.9421L296.206 74.9392C297.232 74.5071 299.05 74.1775 301.361 73.9401C303.692 73.7007 306.583 73.5502 309.792 73.5001V73.5H309.8H320H320.5V74V79V84V84.5H320H312C308.372 84.5 306.445 84.5534 305.416 84.7989C304.914 84.9187 304.727 85.0632 304.642 85.18C304.552 85.303 304.5 85.4964 304.5 85.9C304.5 86.3808 304.552 86.6502 304.683 86.8526C304.811 87.0514 305.069 87.2669 305.676 87.4943C306.913 87.9583 309.246 88.3514 313.673 89.0054C317.098 89.509 319.384 90.3583 320.76 92.326C322.11 94.2566 322.5 97.1576 322.5 101.5C322.5 104.399 322.389 106.707 321.927 108.51C321.458 110.338 320.618 111.682 319.155 112.61C317.72 113.519 315.737 113.993 313.056 114.219C310.367 114.445 306.911 114.425 302.486 114.3L291.486 114L291 113.987V113.5V109V104.5V104.016L291.484 104L300.784 103.7V103.7L300.788 103.7C304.908 103.6 307.148 103.474 308.36 103.188C308.965 103.046 309.22 102.884 309.338 102.748C309.442 102.627 309.5 102.456 309.5 102.1C309.5 101.779 309.446 101.556 309.346 101.382C309.246 101.21 309.072 101.038 308.746 100.869C308.062 100.516 306.849 100.247 304.741 99.9965L304.741 99.9966L304.731 99.9953C299.329 99.2449 295.739 98.1826 293.516 96.1844C291.256 94.1535 290.5 91.2479 290.5 87.1C290.5 80.9229 292.427 76.6665 296.192 74.9453Z" fill="#1C64F2" stroke="white"/>
<path d="M250.51 115.1L250 115.11V114.6V94.6V74.5V74H250.5H263C268.249 74 272.342 74.1243 275.508 74.6345C278.675 75.145 280.984 76.0516 282.604 77.6715C284.226 79.2935 285.088 81.5615 285.517 84.6404C285.945 87.715 285.95 91.6658 285.8 96.7136C285.65 102.338 285.551 105.372 285.139 107.316C284.929 108.308 284.633 109.041 284.199 109.701C283.773 110.349 283.226 110.906 282.553 111.554C281.887 112.244 281.331 112.811 280.654 113.244C279.962 113.688 279.17 113.978 278.038 114.18C275.831 114.573 272.192 114.649 265.178 114.796L265.01 114.8L250.51 115.1ZM267.963 85.1986L267.957 85.1981C266.831 85.1003 265.761 85.101 264.931 85.1731C264.515 85.2093 264.171 85.2625 263.916 85.3259C263.788 85.3576 263.693 85.3895 263.625 85.4186C263.605 85.4275 263.589 85.4352 263.577 85.4414C263.567 85.4701 263.553 85.5117 263.538 85.5687C263.499 85.7165 263.457 85.928 263.416 86.2033C263.335 86.7515 263.261 87.5084 263.199 88.4214C263.075 90.245 263 92.6584 263 95.2V104.068L267.268 103.801H267.269L271.5 103.531V94.5V85.4639L267.963 85.1986ZM263.594 85.4017C263.594 85.4019 263.594 85.4029 263.593 85.4051C263.594 85.4028 263.595 85.4015 263.594 85.4017Z" fill="#1C64F2" stroke="white"/>
</svg>
